<svg width="238" height="15" viewBox="0 0 238 15" fill="none" xmlns="http://www.w3.org/2000/svg">
<path d="M5.712 11.126C5.00267 11.126 4.33533 11 3.71 10.748C3.094 10.4867 2.55733 10.1273 2.1 9.67C1.64267 9.21267 1.28333 8.676 1.022 8.06C0.77 7.43467 0.644 6.76733 0.644 6.058C0.644 5.33933 0.77 4.67667 1.022 4.07C1.28333 3.454 1.64267 2.91733 2.1 2.46C2.55733 2.00267 3.094 1.648 3.71 1.396C4.326 1.13467 4.99333 1.004 5.712 1.004C6.43067 1.004 7.098 1.13467 7.714 1.396C8.33 1.648 8.862 2.00267 9.31 2.46C9.76733 2.91733 10.122 3.454 10.374 4.07C10.6353 4.67667 10.766 5.33933 10.766 6.058C10.766 6.76733 10.6353 7.43467 10.374 8.06C10.122 8.676 9.76733 9.21267 9.31 9.67C8.85267 10.1273 8.316 10.4867 7.7 10.748C7.09333 11 6.43067 11.126 5.712 11.126ZM5.894 9.082C4.98867 9.082 4.27467 8.802 3.752 8.242C3.23867 7.682 2.982 6.94467 2.982 6.03C2.982 5.106 3.23867 4.378 3.752 3.846C4.27467 3.314 4.98867 3.048 5.894 3.048C6.26733 3.048 6.636 3.11333 7 3.244C7.364 3.37467 7.66267 3.55667 7.896 3.79L7.56 4.518C7.31733 4.294 7.056 4.13067 6.776 4.028C6.496 3.92533 6.216 3.874 5.936 3.874C5.32933 3.874 4.85333 4.06533 4.508 4.448C4.16267 4.82133 3.99 5.35333 3.99 6.044C3.99 6.716 4.16267 7.25267 4.508 7.654C4.85333 8.046 5.32933 8.242 5.936 8.242C6.216 8.242 6.496 8.19067 6.776 8.088C7.056 7.98533 7.31733 7.822 7.56 7.598L7.896 8.34C7.66267 8.564 7.35933 8.746 6.986 8.886C6.622 9.01667 6.258 9.082 5.894 9.082ZM5.712 10.51C6.33733 10.51 6.916 10.398 7.448 10.174C7.98933 9.95 8.456 9.63733 8.848 9.236C9.24933 8.82533 9.562 8.354 9.786 7.822C10.01 7.28067 10.122 6.69267 10.122 6.058C10.122 5.42333 10.01 4.84 9.786 4.308C9.562 3.76667 9.24933 3.29533 8.848 2.894C8.456 2.49267 7.98933 2.18 7.448 1.956C6.916 1.732 6.33733 1.62 5.712 1.62C5.07733 1.62 4.48933 1.732 3.948 1.956C3.416 2.18 2.94933 2.49267 2.548 2.894C2.156 3.29533 1.848 3.76667 1.624 4.308C1.4 4.84 1.288 5.42333 1.288 6.058C1.288 6.69267 1.4 7.28067 1.624 7.822C1.848 8.354 2.156 8.82533 2.548 9.236C2.94933 9.63733 3.42067 9.95 3.962 10.174C4.50333 10.398 5.08667 10.51 5.712 10.51ZM16.2704 11V10.132L19.7704 6.478C20.2277 6.002 20.5684 5.54933 20.7924 5.12C21.0257 4.68133 21.1424 4.22867 21.1424 3.762C21.1424 3.19267 20.9651 2.76333 20.6104 2.474C20.2557 2.17533 19.7424 2.026 19.0704 2.026C18.5477 2.026 18.0624 2.11933 17.6144 2.306C17.1757 2.48333 16.7511 2.768 16.3404 3.16L15.9204 2.25C16.2937 1.87667 16.7697 1.578 17.3484 1.354C17.9271 1.12067 18.5384 1.004 19.1824 1.004C20.1811 1.004 20.9511 1.23733 21.4924 1.704C22.0337 2.16133 22.3044 2.81467 22.3044 3.664C22.3044 4.28933 22.1504 4.88667 21.8424 5.456C21.5437 6.016 21.1051 6.59467 20.5264 7.192L17.4324 10.328V10.006H22.7244V11H16.2704ZM27.6609 11.126C26.5409 11.126 25.6823 10.692 25.0849 9.824C24.4876 8.956 24.1889 7.70067 24.1889 6.058C24.1889 4.406 24.4876 3.15067 25.0849 2.292C25.6823 1.43333 26.5409 1.004 27.6609 1.004C28.7903 1.004 29.6489 1.43333 30.2369 2.292C30.8343 3.15067 31.1329 4.40133 31.1329 6.044C31.1329 7.696 30.8343 8.956 30.2369 9.824C29.6396 10.692 28.7809 11.126 27.6609 11.126ZM27.6609 10.118C28.4449 10.118 29.0283 9.78667 29.4109 9.124C29.7936 8.46133 29.9849 7.43467 29.9849 6.044C29.9849 4.644 29.7936 3.622 29.4109 2.978C29.0283 2.32467 28.4449 1.998 27.6609 1.998C26.8863 1.998 26.3029 2.32467 25.9109 2.978C25.5283 3.63133 25.3369 4.65333 25.3369 6.044C25.3369 7.43467 25.5283 8.46133 25.9109 9.124C26.3029 9.78667 26.8863 10.118 27.6609 10.118ZM33.0595 11V10.132L36.5595 6.478C37.0168 6.002 37.3575 5.54933 37.5815 5.12C37.8148 4.68133 37.9315 4.22867 37.9315 3.762C37.9315 3.19267 37.7541 2.76333 37.3995 2.474C37.0448 2.17533 36.5315 2.026 35.8595 2.026C35.3368 2.026 34.8515 2.11933 34.4035 2.306C33.9648 2.48333 33.5401 2.768 33.1295 3.16L32.7095 2.25C33.0828 1.87667 33.5588 1.578 34.1375 1.354C34.7161 1.12067 35.3275 1.004 35.9715 1.004C36.9701 1.004 37.7401 1.23733 38.2815 1.704C38.8228 2.16133 39.0935 2.81467 39.0935 3.664C39.0935 4.28933 38.9395 4.88667 38.6315 5.456C38.3328 6.016 37.8941 6.59467 37.3155 7.192L34.2215 10.328V10.006H39.5135V11H33.0595ZM44.394 11.126C43.7313 11.126 43.0967 11.0233 42.49 10.818C41.8833 10.6127 41.3747 10.3187 40.964 9.936L41.398 9.04C41.8553 9.41333 42.3267 9.684 42.812 9.852C43.2973 10.02 43.82 10.104 44.38 10.104C45.1173 10.104 45.6773 9.95 46.06 9.642C46.4427 9.32467 46.634 8.86267 46.634 8.256C46.634 7.67733 46.438 7.23867 46.046 6.94C45.654 6.632 45.08 6.478 44.324 6.478H42.84V5.512H44.226C44.8793 5.512 45.3973 5.344 45.78 5.008C46.1627 4.672 46.354 4.21467 46.354 3.636C46.354 3.11333 46.1767 2.71667 45.822 2.446C45.4767 2.166 44.9773 2.026 44.324 2.026C43.26 2.026 42.3407 2.404 41.566 3.16L41.132 2.25C41.5147 1.858 41.9953 1.55467 42.574 1.34C43.1527 1.116 43.7593 1.004 44.394 1.004C45.3647 1.004 46.1253 1.228 46.676 1.676C47.2267 2.124 47.502 2.74467 47.502 3.538C47.502 4.14467 47.3293 4.66733 46.984 5.106C46.6387 5.53533 46.172 5.82933 45.584 5.988V5.834C46.284 5.946 46.8253 6.226 47.208 6.674C47.5907 7.11267 47.782 7.668 47.782 8.34C47.782 9.19867 47.4787 9.88 46.872 10.384C46.2747 10.8787 45.4487 11.126 44.394 11.126ZM52.5469 11L56.9009 1.13H57.9089L62.3329 11H61.1289L59.8969 8.186L60.4149 8.48H54.3809L54.9409 8.186L53.7369 11H52.5469ZM57.3909 2.46L55.1229 7.78L54.7869 7.528H59.9949L59.7429 7.78L57.4189 2.46H57.3909ZM63.6958 11V5.596C63.6958 5.33467 63.6818 5.06867 63.6538 4.798C63.6352 4.518 63.6118 4.24267 63.5838 3.972H64.6758L64.8158 5.512H64.6478C64.8532 4.97067 65.1798 4.56 65.6278 4.28C66.0852 3.99067 66.6125 3.846 67.2098 3.846C68.0405 3.846 68.6658 4.07 69.0858 4.518C69.5152 4.95667 69.7298 5.652 69.7298 6.604V11H68.5958V6.674C68.5958 6.01133 68.4605 5.53067 68.1898 5.232C67.9285 4.924 67.5178 4.77 66.9578 4.77C66.3045 4.77 65.7865 4.97067 65.4038 5.372C65.0212 5.77333 64.8298 6.31 64.8298 6.982V11H63.6958ZM71.899 11V3.972H73.033V11H71.899ZM71.759 2.376V1.102H73.159V2.376H71.759ZM75.2349 11V5.596C75.2349 5.33467 75.2209 5.06867 75.1929 4.798C75.1742 4.518 75.1509 4.24267 75.1229 3.972H76.2149L76.3549 5.512H76.1869C76.3736 4.98 76.6676 4.56933 77.0689 4.28C77.4796 3.99067 77.9742 3.846 78.5529 3.846C79.1409 3.846 79.6169 3.986 79.9809 4.266C80.3542 4.546 80.6062 4.98 80.7369 5.568H80.5269C80.7042 5.036 81.0169 4.616 81.4649 4.308C81.9129 4 82.4356 3.846 83.0329 3.846C83.8076 3.846 84.3909 4.07 84.7829 4.518C85.1749 4.95667 85.3709 5.652 85.3709 6.604V11H84.2369V6.674C84.2369 6.01133 84.1202 5.53067 83.8869 5.232C83.6536 4.924 83.2802 4.77 82.7669 4.77C82.1789 4.77 81.7122 4.97533 81.3669 5.386C81.0309 5.78733 80.8629 6.32867 80.8629 7.01V11H79.7289V6.674C79.7289 6.01133 79.6122 5.53067 79.3789 5.232C79.1456 4.924 78.7722 4.77 78.2589 4.77C77.6709 4.77 77.2089 4.97533 76.8729 5.386C76.5369 5.78733 76.3689 6.32867 76.3689 7.01V11H75.2349ZM90.1999 11.126C89.5746 11.126 89.0286 10.9813 88.5619 10.692C88.0953 10.3933 87.7313 9.97333 87.4699 9.432C87.2179 8.89067 87.0919 8.242 87.0919 7.486C87.0919 6.72067 87.2179 6.06733 87.4699 5.526C87.7313 4.98467 88.0953 4.56933 88.5619 4.28C89.0286 3.99067 89.5746 3.846 90.1999 3.846C90.8346 3.846 91.3806 4.00933 91.8379 4.336C92.3046 4.65333 92.6126 5.08733 92.7619 5.638H92.5939L92.7479 3.972H93.8399C93.8119 4.24267 93.7839 4.518 93.7559 4.798C93.7373 5.06867 93.7279 5.33467 93.7279 5.596V11H92.5939V9.348H92.7479C92.5986 9.89867 92.2906 10.3327 91.8239 10.65C91.3573 10.9673 90.8159 11.126 90.1999 11.126ZM90.4239 10.202C91.0959 10.202 91.6279 9.97333 92.0199 9.516C92.4119 9.04933 92.6079 8.37267 92.6079 7.486C92.6079 6.59 92.4119 5.91333 92.0199 5.456C91.6279 4.98933 91.0959 4.756 90.4239 4.756C89.7613 4.756 89.2293 4.98933 88.8279 5.456C88.4359 5.91333 88.2399 6.59 88.2399 7.486C88.2399 8.37267 88.4359 9.04933 88.8279 9.516C89.2293 9.97333 89.7613 10.202 90.4239 10.202ZM96.0387 4.154L95.5067 3.748C95.7587 3.48667 95.922 3.244 95.9967 3.02C96.0807 2.78667 96.1227 2.558 96.1227 2.334L96.4727 2.558H95.4507V1.13H96.8787V2.138C96.8787 2.51133 96.818 2.86133 96.6967 3.188C96.5754 3.51467 96.356 3.83667 96.0387 4.154ZM100.774 11.126C100.214 11.126 99.6914 11.0513 99.2061 10.902C98.7207 10.7433 98.3194 10.524 98.0021 10.244L98.3941 9.446C98.7394 9.71667 99.1127 9.91733 99.5141 10.048C99.9247 10.1787 100.349 10.244 100.788 10.244C101.348 10.244 101.768 10.146 102.048 9.95C102.337 9.74467 102.482 9.46467 102.482 9.11C102.482 8.83933 102.389 8.62467 102.202 8.466C102.025 8.298 101.731 8.16733 101.32 8.074L100.018 7.808C99.4207 7.67733 98.9727 7.458 98.6741 7.15C98.3754 6.83267 98.2261 6.43133 98.2261 5.946C98.2261 5.53533 98.3334 5.176 98.5481 4.868C98.7627 4.55067 99.0754 4.30333 99.4861 4.126C99.8967 3.93933 100.377 3.846 100.928 3.846C101.441 3.846 101.913 3.92533 102.342 4.084C102.781 4.23333 103.145 4.45267 103.434 4.742L103.028 5.526C102.748 5.25533 102.426 5.05467 102.062 4.924C101.707 4.784 101.339 4.714 100.956 4.714C100.405 4.714 99.9901 4.826 99.7101 5.05C99.4394 5.26467 99.3041 5.54933 99.3041 5.904C99.3041 6.17467 99.3881 6.39867 99.5561 6.576C99.7334 6.744 100.004 6.87 100.368 6.954L101.67 7.22C102.305 7.36 102.776 7.57933 103.084 7.878C103.401 8.16733 103.56 8.55933 103.56 9.054C103.56 9.474 103.443 9.84267 103.21 10.16C102.977 10.468 102.65 10.706 102.23 10.874C101.819 11.042 101.334 11.126 100.774 11.126ZM109.158 11V1.13H110.32V9.992H115.304V11H109.158ZM119.335 11.126C118.709 11.126 118.163 10.9813 117.697 10.692C117.23 10.3933 116.866 9.97333 116.605 9.432C116.353 8.89067 116.227 8.242 116.227 7.486C116.227 6.72067 116.353 6.06733 116.605 5.526C116.866 4.98467 117.23 4.56933 117.697 4.28C118.163 3.99067 118.709 3.846 119.335 3.846C119.969 3.846 120.515 4.00933 120.973 4.336C121.439 4.65333 121.747 5.08733 121.897 5.638H121.729L121.883 3.972H122.975C122.947 4.24267 122.919 4.518 122.891 4.798C122.872 5.06867 122.863 5.33467 122.863 5.596V11H121.729V9.348H121.883C121.733 9.89867 121.425 10.3327 120.959 10.65C120.492 10.9673 119.951 11.126 119.335 11.126ZM119.559 10.202C120.231 10.202 120.763 9.97333 121.155 9.516C121.547 9.04933 121.743 8.37267 121.743 7.486C121.743 6.59 121.547 5.91333 121.155 5.456C120.763 4.98933 120.231 4.756 119.559 4.756C118.896 4.756 118.364 4.98933 117.963 5.456C117.571 5.91333 117.375 6.59 117.375 7.486C117.375 8.37267 117.571 9.04933 117.963 9.516C118.364 9.97333 118.896 10.202 119.559 10.202ZM125.055 11V5.596C125.055 5.33467 125.041 5.06867 125.013 4.798C124.995 4.518 124.971 4.24267 124.943 3.972H126.035L126.175 5.512H126.007C126.213 4.97067 126.539 4.56 126.987 4.28C127.445 3.99067 127.972 3.846 128.569 3.846C129.4 3.846 130.025 4.07 130.445 4.518C130.875 4.95667 131.089 5.652 131.089 6.604V11H129.955V6.674C129.955 6.01133 129.82 5.53067 129.549 5.232C129.288 4.924 128.877 4.77 128.317 4.77C127.664 4.77 127.146 4.97067 126.763 5.372C126.381 5.77333 126.189 6.31 126.189 6.982V11H125.055ZM135.918 11.126C135.302 11.126 134.761 10.9813 134.294 10.692C133.828 10.3933 133.464 9.97333 133.202 9.432C132.95 8.89067 132.824 8.242 132.824 7.486C132.824 6.72067 132.95 6.06733 133.202 5.526C133.464 4.98467 133.828 4.56933 134.294 4.28C134.761 3.99067 135.302 3.846 135.918 3.846C136.553 3.846 137.099 4.00467 137.556 4.322C138.023 4.63933 138.336 5.06867 138.494 5.61H138.326V0.695999H139.46V11H138.34V9.32H138.494C138.345 9.88 138.037 10.3233 137.57 10.65C137.104 10.9673 136.553 11.126 135.918 11.126ZM136.156 10.202C136.819 10.202 137.351 9.97333 137.752 9.516C138.154 9.04933 138.354 8.37267 138.354 7.486C138.354 6.59 138.154 5.91333 137.752 5.456C137.351 4.98933 136.819 4.756 136.156 4.756C135.494 4.756 134.962 4.98933 134.56 5.456C134.168 5.91333 133.972 6.59 133.972 7.486C133.972 8.37267 134.168 9.04933 134.56 9.516C134.962 9.97333 135.494 10.202 136.156 10.202ZM141.653 11V3.972H142.787V11H141.653ZM141.513 2.376V1.102H142.913V2.376H141.513ZM144.989 11V5.596C144.989 5.33467 144.975 5.06867 144.947 4.798C144.928 4.518 144.905 4.24267 144.877 3.972H145.969L146.109 5.512H145.941C146.146 4.97067 146.473 4.56 146.921 4.28C147.378 3.99067 147.905 3.846 148.503 3.846C149.333 3.846 149.959 4.07 150.379 4.518C150.808 4.95667 151.023 5.652 151.023 6.604V11H149.889V6.674C149.889 6.01133 149.753 5.53067 149.483 5.232C149.221 4.924 148.811 4.77 148.251 4.77C147.597 4.77 147.079 4.97067 146.697 5.372C146.314 5.77333 146.123 6.31 146.123 6.982V11H144.989ZM156.286 14.122C155.679 14.122 155.119 14.0473 154.606 13.898C154.093 13.7487 153.631 13.52 153.22 13.212L153.556 12.358C153.845 12.5633 154.13 12.7267 154.41 12.848C154.69 12.9693 154.979 13.058 155.278 13.114C155.577 13.1793 155.894 13.212 156.23 13.212C156.921 13.212 157.443 13.03 157.798 12.666C158.153 12.302 158.33 11.784 158.33 11.112V9.054H158.47C158.321 9.60467 158.013 10.0433 157.546 10.37C157.079 10.6873 156.533 10.846 155.908 10.846C155.264 10.846 154.704 10.706 154.228 10.426C153.761 10.1367 153.397 9.73067 153.136 9.208C152.884 8.676 152.758 8.05067 152.758 7.332C152.758 6.62267 152.884 6.00667 153.136 5.484C153.397 4.96133 153.761 4.56 154.228 4.28C154.704 3.99067 155.264 3.846 155.908 3.846C156.543 3.846 157.089 4.00467 157.546 4.322C158.013 4.63933 158.321 5.078 158.47 5.638L158.33 5.498L158.456 3.972H159.562C159.525 4.24267 159.497 4.518 159.478 4.798C159.459 5.06867 159.45 5.33467 159.45 5.596V10.958C159.45 12.0033 159.179 12.792 158.638 13.324C158.106 13.856 157.322 14.122 156.286 14.122ZM156.118 9.922C156.799 9.922 157.336 9.698 157.728 9.25C158.12 8.79267 158.316 8.15333 158.316 7.332C158.316 6.51067 158.12 5.876 157.728 5.428C157.336 4.98 156.799 4.756 156.118 4.756C155.446 4.756 154.909 4.98 154.508 5.428C154.107 5.876 153.906 6.51067 153.906 7.332C153.906 8.15333 154.107 8.79267 154.508 9.25C154.909 9.698 155.446 9.922 156.118 9.922ZM165.404 11V1.13H169.422C170.458 1.13 171.256 1.382 171.816 1.886C172.376 2.38067 172.656 3.07133 172.656 3.958C172.656 4.826 172.376 5.51667 171.816 6.03C171.256 6.534 170.458 6.786 169.422 6.786H166.566V11H165.404ZM166.566 5.82H169.31C170.029 5.82 170.57 5.65667 170.934 5.33C171.307 5.00333 171.494 4.546 171.494 3.958C171.494 3.36067 171.307 2.89867 170.934 2.572C170.57 2.24533 170.029 2.082 169.31 2.082H166.566V5.82ZM176.729 11.126C176.104 11.126 175.558 10.9813 175.091 10.692C174.625 10.3933 174.261 9.97333 173.999 9.432C173.747 8.89067 173.621 8.242 173.621 7.486C173.621 6.72067 173.747 6.06733 173.999 5.526C174.261 4.98467 174.625 4.56933 175.091 4.28C175.558 3.99067 176.104 3.846 176.729 3.846C177.364 3.846 177.91 4.00933 178.367 4.336C178.834 4.65333 179.142 5.08733 179.291 5.638H179.123L179.277 3.972H180.369C180.341 4.24267 180.313 4.518 180.285 4.798C180.267 5.06867 180.257 5.33467 180.257 5.596V11H179.123V9.348H179.277C179.128 9.89867 178.82 10.3327 178.353 10.65C177.887 10.9673 177.345 11.126 176.729 11.126ZM176.953 10.202C177.625 10.202 178.157 9.97333 178.549 9.516C178.941 9.04933 179.137 8.37267 179.137 7.486C179.137 6.59 178.941 5.91333 178.549 5.456C178.157 4.98933 177.625 4.756 176.953 4.756C176.291 4.756 175.759 4.98933 175.357 5.456C174.965 5.91333 174.769 6.59 174.769 7.486C174.769 8.37267 174.965 9.04933 175.357 9.516C175.759 9.97333 176.291 10.202 176.953 10.202ZM185.544 14.122C184.937 14.122 184.377 14.0473 183.864 13.898C183.35 13.7487 182.888 13.52 182.478 13.212L182.814 12.358C183.103 12.5633 183.388 12.7267 183.668 12.848C183.948 12.9693 184.237 13.058 184.536 13.114C184.834 13.1793 185.152 13.212 185.488 13.212C186.178 13.212 186.701 13.03 187.056 12.666C187.41 12.302 187.588 11.784 187.588 11.112V9.054H187.728C187.578 9.60467 187.27 10.0433 186.804 10.37C186.337 10.6873 185.791 10.846 185.166 10.846C184.522 10.846 183.962 10.706 183.486 10.426C183.019 10.1367 182.655 9.73067 182.394 9.208C182.142 8.676 182.016 8.05067 182.016 7.332C182.016 6.62267 182.142 6.00667 182.394 5.484C182.655 4.96133 183.019 4.56 183.486 4.28C183.962 3.99067 184.522 3.846 185.166 3.846C185.8 3.846 186.346 4.00467 186.804 4.322C187.27 4.63933 187.578 5.078 187.728 5.638L187.588 5.498L187.714 3.972H188.82C188.782 4.24267 188.754 4.518 188.736 4.798C188.717 5.06867 188.708 5.33467 188.708 5.596V10.958C188.708 12.0033 188.437 12.792 187.896 13.324C187.364 13.856 186.58 14.122 185.544 14.122ZM185.376 9.922C186.057 9.922 186.594 9.698 186.986 9.25C187.378 8.79267 187.574 8.15333 187.574 7.332C187.574 6.51067 187.378 5.876 186.986 5.428C186.594 4.98 186.057 4.756 185.376 4.756C184.704 4.756 184.167 4.98 183.766 5.428C183.364 5.876 183.164 6.51067 183.164 7.332C183.164 8.15333 183.364 8.79267 183.766 9.25C184.167 9.698 184.704 9.922 185.376 9.922ZM194.007 11.126C192.906 11.126 192.038 10.8087 191.403 10.174C190.769 9.53 190.451 8.63867 190.451 7.5C190.451 6.76267 190.591 6.12333 190.871 5.582C191.151 5.03133 191.543 4.60667 192.047 4.308C192.551 4 193.13 3.846 193.783 3.846C194.427 3.846 194.969 3.98133 195.407 4.252C195.846 4.52267 196.182 4.91 196.415 5.414C196.649 5.90867 196.765 6.49667 196.765 7.178V7.598H191.319V6.884H196.023L195.785 7.066C195.785 6.31933 195.617 5.736 195.281 5.316C194.945 4.896 194.446 4.686 193.783 4.686C193.083 4.686 192.537 4.93333 192.145 5.428C191.753 5.91333 191.557 6.57133 191.557 7.402V7.528C191.557 8.40533 191.772 9.07267 192.201 9.53C192.64 9.978 193.251 10.202 194.035 10.202C194.455 10.202 194.847 10.1413 195.211 10.02C195.585 9.88933 195.939 9.67933 196.275 9.39L196.667 10.188C196.359 10.4867 195.967 10.72 195.491 10.888C195.025 11.0467 194.53 11.126 194.007 11.126ZM206.169 11.126C204.834 11.126 203.84 10.7853 203.187 10.104C202.543 9.42267 202.221 8.41933 202.221 7.094V1.13H203.369V7.038C203.369 8.05533 203.593 8.82067 204.041 9.334C204.489 9.84733 205.198 10.104 206.169 10.104C207.084 10.104 207.779 9.84733 208.255 9.334C208.731 8.82067 208.969 8.05533 208.969 7.038V1.13H210.117V7.094C210.117 8.41933 209.781 9.42267 209.109 10.104C208.446 10.7853 207.466 11.126 206.169 11.126ZM212.377 11V3.972H213.511V11H212.377ZM212.237 2.376V1.102H213.637V2.376H212.237ZM219.49 11V1.13H220.652V5.61H220.68L225.412 1.13H226.896L221.45 6.226L221.464 5.638L227.288 11H225.762L220.68 6.352H220.652V11H219.49ZM228.237 11V3.972H229.371V11H228.237ZM228.097 2.376V1.102H229.497V2.376H228.097ZM234.065 11.126C233.374 11.126 232.847 10.93 232.483 10.538C232.119 10.1367 231.937 9.53467 231.937 8.732V4.854H230.565V3.972H231.937V2.054L233.071 1.732V3.972H235.087V4.854H233.071V8.606C233.071 9.166 233.164 9.56733 233.351 9.81C233.547 10.0433 233.836 10.16 234.219 10.16C234.396 10.16 234.555 10.146 234.695 10.118C234.835 10.0807 234.961 10.0387 235.073 9.992V10.944C234.942 11 234.783 11.042 234.597 11.07C234.419 11.1073 234.242 11.126 234.065 11.126ZM236.435 11V9.572H237.863V11H236.435Z" fill="white"/>
</svg>
